<svg width="384" height="128" viewBox="0 0 384 128" fill="none" xmlns="http://www.w3.org/2000/svg">
<path d="M128 32V64H96L128 96V128H32L0 96V64H32L0 32V0H96L128 32Z" fill="black"></path>
<path d="M180.285 64.7423C169.402 64.7423 161.48 59.3947 160 50.4078H170.735C171.549 53.6758 173.992 55.9039 180.582 55.9039C185.246 55.9039 187.467 54.7899 187.467 52.5617C187.467 49.8137 184.283 49.5908 178.138 48.1054C166.589 45.3574 161.851 42.7579 161.851 35.7021C161.851 27.0865 168.958 22.1104 179.693 22.1104C191.02 22.1104 196.573 27.6064 197.98 35.1822H187.245C186.43 32.5826 184.209 31.0229 179.323 31.0229C175.103 31.0229 172.512 32.2113 172.512 34.4394C172.512 36.3705 174.363 36.7419 180.285 38.0787C191.909 40.7525 198.424 42.9807 198.424 51.1506C198.424 60.286 190.354 64.7423 180.285 64.7423Z" fill="black"></path>
<path d="M223.285 64.7424C211.069 64.7424 202.111 55.5327 202.111 43.4264C202.111 31.3202 211.069 22.1105 223.359 22.1105C233.28 22.1105 242.09 28.1265 243.645 38.5245H232.762C231.503 34.0682 227.653 31.9143 223.359 31.9143C216.918 31.9143 212.772 36.6677 212.846 43.4264C212.772 50.2594 217.066 54.9385 223.285 54.9385C227.653 54.9385 231.503 52.7104 232.762 48.2541H243.645C242.016 59.0235 233.058 64.7424 223.285 64.7424Z" fill="black"></path>
<path fill-rule="evenodd" clip-rule="evenodd" d="M265.682 22.1105C271.457 22.1105 275.751 24.7844 278.564 28.7208V23.0021H289.151L289.078 64.0001H278.49V58.3546C275.677 62.2167 271.457 64.7422 265.757 64.7423C255.096 64.7423 247.174 55.9785 247.174 43.4269C247.174 30.8007 255.243 22.1105 265.682 22.1105ZM268.126 32.2111C262.203 32.2111 257.835 36.7417 257.835 43.4259C257.835 50.1846 262.277 54.6417 268.126 54.6417C274.049 54.6417 278.565 50.1846 278.565 43.4259C278.565 36.7417 274.048 32.2111 268.126 32.2111Z" fill="black"></path>
<path d="M295.442 4.58228V63.9995H306.029V8.81735L301.799 4.58228H295.442Z" fill="black"></path>
<path fill-rule="evenodd" clip-rule="evenodd" d="M332.52 22.1105C345.995 22.1105 354.361 32.7318 353.324 46.1749H322.082C322.748 52.7105 327.19 55.9786 332.669 55.9786C336.741 55.9785 340.294 54.1215 341.701 50.8536H352.658C349.623 60.5089 341.478 64.7423 332.742 64.7423C320.008 64.7421 311.273 55.6813 311.272 43.5011C311.272 31.2463 320.083 22.1105 332.52 22.1105ZM332.446 30.8741C327.264 30.8743 323.932 33.9942 322.599 38.3761H342.071C340.887 33.9198 337.555 30.8741 332.446 30.8741Z" fill="black"></path>
<path d="M384 22.259C383.334 22.1847 382.593 22.1105 381.631 22.1105C375.856 22.1105 371.414 24.7842 368.897 30.1318V23.0017H358.31V59.7649L362.542 63.9997H368.897V45.6546C368.897 35.9993 374.672 33.0284 381.409 33.0284C382.593 33.0284 383.186 33.1027 384 33.1769V22.259Z" fill="black"></path>
</svg>