<svg width="384" height="128" viewBox="0 0 384 128" fill="none" xmlns="http://www.w3.org/2000/svg">
<path d="M128 32V64H96L128 96V128H32L0 96V64H32L0 32V0H96L128 32Z" fill="white"></path>
<path d="M180.285 64.7423C169.402 64.7423 161.48 59.3948 160 50.4079H170.735C171.549 53.6758 173.992 55.904 180.582 55.904C185.246 55.904 187.467 54.7899 187.467 52.5618C187.467 49.8137 184.283 49.5909 178.138 48.1055C166.589 45.3574 161.851 42.7579 161.851 35.7021C161.851 27.0866 168.958 22.1104 179.693 22.1104C191.02 22.1104 196.573 27.6065 197.98 35.1822H187.245C186.43 32.5827 184.209 31.023 179.323 31.023C175.103 31.023 172.512 32.2113 172.512 34.4395C172.512 36.3706 174.363 36.7419 180.285 38.0788C191.909 40.7526 198.424 42.9807 198.424 51.1506C198.424 60.286 190.354 64.7423 180.285 64.7423Z" fill="white"></path>
<path d="M223.285 64.7423C211.069 64.7423 202.111 55.5326 202.111 43.4264C202.111 31.3201 211.069 22.1104 223.359 22.1104C233.28 22.1104 242.09 28.1264 243.645 38.5244H232.762C231.503 34.0681 227.653 31.9143 223.359 31.9143C216.918 31.9143 212.772 36.6676 212.846 43.4264C212.772 50.2593 217.066 54.9385 223.285 54.9385C227.653 54.9385 231.503 52.7103 232.762 48.254H243.645C242.016 59.0234 233.058 64.7423 223.285 64.7423Z" fill="white"></path>
<path fill-rule="evenodd" clip-rule="evenodd" d="M265.682 22.1104C271.457 22.1104 275.751 24.7844 278.564 28.7208V23.002H289.151L289.078 64.0001H278.49V58.3546C275.677 62.2166 271.457 64.7422 265.757 64.7422C255.096 64.7422 247.174 55.9785 247.174 43.4268C247.174 30.8006 255.243 22.1104 265.682 22.1104ZM268.126 32.211C262.203 32.2111 257.835 36.7417 257.835 43.4258C257.835 50.1845 262.277 54.6416 268.126 54.6417C274.049 54.6417 278.565 50.1846 278.565 43.4258C278.565 36.7417 274.048 32.211 268.126 32.211Z" fill="white"></path>
<path d="M295.442 4.58228V63.9995H306.029V8.81735L301.799 4.58228H295.442Z" fill="white"></path>
<path fill-rule="evenodd" clip-rule="evenodd" d="M332.52 22.1104C345.995 22.1104 354.361 32.7317 353.324 46.1749H322.082C322.748 52.7104 327.19 55.9786 332.669 55.9786C336.741 55.9785 340.294 54.1214 341.701 50.8536H352.658C349.623 60.5089 341.478 64.7422 332.742 64.7422C320.008 64.742 311.273 55.6812 311.272 43.501C311.272 31.2462 320.083 22.1104 332.52 22.1104ZM332.446 30.8741C327.264 30.8742 323.932 33.9941 322.599 38.376H342.071C340.887 33.9197 337.555 30.8741 332.446 30.8741Z" fill="white"></path>
<path d="M384 22.259C383.334 22.1847 382.593 22.1104 381.631 22.1104C375.856 22.1104 371.414 24.7842 368.897 30.1317V23.0017H358.31V59.7649L362.542 63.9996H368.897V45.6545C368.897 35.9992 374.672 33.0283 381.409 33.0283C382.593 33.0283 383.186 33.1026 384 33.1769V22.259Z" fill="white"></path>
</svg>