<svg xmlns="http://www.w3.org/2000/svg" width="240" height="717" viewBox="0 0 240 717" fill="currentColor"><path d="M119.995 179.744L60.2458 239.494L0.495117 239.495V119.995H119.995V179.744Z"></path><path d="M119.995 119.991H0.495117V60.2403H0.500675L60.2444 0.496507L119.995 0.495117V119.991Z"></path><path d="M239.495 179.744L179.746 239.494L119.995 239.495V119.995H239.495V179.744Z"></path><path d="M239.495 119.991H119.995V60.2403H120.001L179.744 0.496507L239.495 0.495117V119.991Z"></path><path d="M59.7507 358.5L0.00138594 298.751L0 239L119.5 239L119.5 358.5L59.7507 358.5Z"></path><path d="M119.504 358.5L119.504 239L179.255 239L179.255 239.006L238.999 298.749L239 358.5L119.504 358.5Z"></path><path d="M59.7507 478L0.00138594 418.251L0 358.5L119.5 358.5L119.5 478L59.7507 478Z"></path><path d="M119.504 478L119.504 358.5L179.255 358.5L179.255 358.506L238.999 418.249L239 478L119.504 478Z"></path><path d="M59.7507 597.5L0.00138594 537.751L0 478L119.5 478L119.5 597.5L59.7507 597.5Z"></path><path d="M119.504 597.5L119.504 478L179.255 478L179.255 478.006L238.999 537.749L239 597.5L119.504 597.5Z"></path><path d="M59.7507 717L0.00138594 657.251L0 597.5L119.5 597.5L119.5 717L59.7507 717Z"></path><path d="M119.504 717L119.504 597.5L179.255 597.5L179.255 597.506L238.999 657.249L239 717L119.504 717Z"></path></svg>