<svg xmlns="http://www.w3.org/2000/svg" width="478" height="240" viewBox="0 0 478 240" fill="currentColor"><path d="M119.5 179.744L59.7507 239.494L0 239.495V119.995H119.5V179.744Z"></path><path d="M119.5 119.991H0V60.2403H0.00555743L59.7493 0.496507L119.5 0.495117V119.991Z"></path><path d="M239 179.744L179.251 239.494L119.5 239.495V119.995H239V179.744Z"></path><path d="M239 119.991H119.5V60.2403H119.506L179.249 0.496507L239 0.495117V119.991Z"></path><path d="M298.256 119.5L238.506 59.7507L238.505 0L358.005 0L358.005 119.5L298.256 119.5Z"></path><path d="M358.009 119.5L358.009 0L417.76 0L417.76 0.00555482L477.503 59.7493L477.505 119.5L358.009 119.5Z"></path><path d="M298.256 239L238.506 179.251L238.505 119.5L358.005 119.5L358.005 239L298.256 239Z"></path><path d="M358.009 239L358.009 119.5L417.76 119.5L417.76 119.506L477.503 179.249L477.505 239L358.009 239Z"></path></svg>